C:\Users\israe\Dropbox\PhDWork\ExperimentalData\subject2\145\P2S145W02_filtered35.mot
nRows=15
nColumns=28

name C:\Users\israe\Dropbox\PhDWork\ExperimentalData\subject2\145\P2S145W02_filtered35.mot
datacolumns 28
datarows 15
range 0.5700000000 0.5840000000
endheader
time	ground_force_1_vx	ground_force_1_vy	ground_force_1_vz	ground_force_1_px	ground_force_1_py	ground_force_1_pz	ground_moment_1_mx	ground_moment_1_my	ground_moment_1_mz	ground_force_2_vx	ground_force_2_vy	ground_force_2_vz	ground_force_2_px	ground_force_2_py	ground_force_2_pz	ground_moment_2_mx	ground_moment_2_my	ground_moment_2_mz	ground_force_3_vx	ground_force_3_vy	ground_force_3_vz	ground_force_3_px	ground_force_3_py	ground_force_3_pz	ground_moment_3_mx	ground_moment_3_my	ground_moment_3_mz
        0.5700000000	       -0.0000000000	        0.0000000000	       -0.0000000000	        0.1988394961	        0.0000558755	       -0.3004071324	       -0.0000000000	        0.0000000000	        0.0000000000	       -0.0000504971	        0.0005385547	        0.0001601179	        0.2029003516	       -0.0000795827	        0.4543649445	       -0.0001465124	       -0.0000077622	       -0.0000045864	      -24.1716841303	      840.5210503399	     -118.8899662063	        0.2076431971	        0.0000770316	        1.3583900146	      -73.9020203848	       20.1779489258	       97.9042301157	
        0.5710000000	       -0.0000000000	        0.0000000000	       -0.0000000000	        0.1988394961	        0.0000558755	       -0.3004071324	       -0.0000000000	        0.0000000000	        0.0000000000	       -0.0000442847	        0.0000826029	        0.0002292499	        0.2029003516	       -0.0000795827	        0.4543649445	       -0.0000151857	       -0.0000031673	        0.0000076137	      -24.3661423812	      844.2332249053	     -121.2073767161	        0.2076431971	        0.0000770316	        1.3583900146	      -74.0946575755	       20.3921313878	       98.3249705211	
        0.5720000000	       -0.0000000000	        0.0000000000	       -0.0000000000	        0.1988394961	        0.0000558755	       -0.3004071324	       -0.0000000000	        0.0000000000	        0.0000000000	       -0.0000310414	        0.0000000000	        0.0003099415	        0.2029003516	       -0.0000795827	        0.4543649445	        0.0001797206	        0.0000038954	        0.0000248869	      -24.5693444159	      847.8067905054	     -123.5430449231	        0.2076431971	        0.0000770316	        1.3583900146	      -74.2760169919	       20.6047456630	       98.7278949510	
        0.5730000000	       -0.0000000000	        0.0000000000	       -0.0000000000	        0.1988394961	        0.0000558755	       -0.3004071324	       -0.0000000000	        0.0000000000	        0.0000000000	       -0.0000086613	        0.0000000000	        0.0004002139	        0.2029003516	       -0.0000795827	        0.4543649445	        0.0004503090	        0.0000139424	        0.0000480400	      -24.7795561686	      851.2376693443	     -125.8955911689	        0.2076431971	        0.0000770316	        1.3583900146	      -74.4461369569	       20.8152928238	       99.1130250042	
        0.5740000000	       -0.0000000000	        0.0000000000	       -0.0000000000	        0.1988394961	        0.0000558755	       -0.3004071324	       -0.0000000000	        0.0000000000	        0.0000000000	        0.0000251147	        0.0000000000	        0.0004962664	        0.2029003516	       -0.0000795827	        0.4543649445	        0.0008074227	        0.0000274585	        0.0000777184	      -24.9952201704	      854.5218830141	     -128.2630612081	        0.2076431971	        0.0000770316	        1.3583900146	      -74.6051853409	       21.0234782887	       99.4804062261	
        0.5750000000	       -0.0000000000	        0.0000000000	       -0.0000000000	        0.1988394961	        0.0000558755	       -0.3004071324	       -0.0000000000	        0.0000000000	        0.0000000000	        0.0000725627	        0.0000000000	        0.0005919652	        0.2029003516	       -0.0000795827	        0.4543649445	        0.0012590480	        0.0000448381	        0.0001142709	      -25.2149537295	      857.6562503074	     -130.6424657832	        0.2076431971	        0.0000770316	        1.3583900146	      -74.7534044302	       21.2291993422	       99.8300541209	
        0.5760000000	        0.0000000000	        0.0000000000	       -0.0000000000	        0.1988394961	        0.0000558755	       -0.3004071324	       -0.0000000000	        0.0000000000	        0.0000000000	        0.0001357740	        0.0000000000	        0.0006783051	        0.2029003516	       -0.0000795827	        0.4543649445	        0.0018082242	        0.0000663053	        0.0001575765	      -25.4372906243	      860.6378609515	     -133.0296832372	        0.2076431971	        0.0000770316	        1.3583900146	      -74.8911033374	       21.4325049601	      100.1620803284	
        0.5770000000	        0.0000000000	        0.0000000000	       -0.0000000000	        0.1988394961	        0.0000558755	       -0.3004071324	       -0.0000000000	        0.0000000000	        0.0000000000	        0.0002163742	        0.0000000000	        0.0007428817	        0.2029003516	       -0.0000795827	        0.4543649445	        0.0024504210	        0.0000918130	        0.0002068331	      -25.6608231896	      863.4626038024	     -135.4202573770	        0.2076431971	        0.0000770316	        1.3583900146	      -75.0184677700	       21.6335075128	      100.4767666078	
        0.5780000000	        0.0000000000	        0.0000000000	        0.0000000000	        0.1988394961	        0.0000558755	       -0.3004071324	       -0.0000000000	        0.0000000000	        0.0000000000	        0.0003151529	        0.0000000000	        0.0007694272	        0.2029003516	       -0.0000795827	        0.4543649445	        0.0031703726	        0.0001209186	        0.0002603094	      -25.8846203805	      866.1250998443	     -137.8105055186	        0.2076431971	        0.0000770316	        1.3583900146	      -75.1353167183	       21.8322803113	      100.7744311748	
        0.5790000000	        0.0000000000	        0.0000000000	        0.0000000000	        0.1988394961	        0.0000558755	       -0.3004071324	        0.0000000000	       -0.0000000000	       -0.0000000000	        0.0004315944	        0.0000000000	        0.0007374843	        0.2029003516	       -0.0000795827	        0.4543649445	        0.0039384047	        0.0001526374	        0.0003150648	      -26.1080853558	      868.6204520703	     -140.1983815611	        0.2076431971	        0.0000770316	        1.3583900146	      -75.2411161460	       22.0288367875	      101.0552535338	
        0.5800000000	        0.0000000000	        0.0000000000	        0.0000000000	        0.1988394961	        0.0000558755	       -0.3004071324	        0.0000000000	       -0.0000000000	       -0.0000000000	        0.0005633079	        0.0000000000	        0.0006223113	        0.2029003516	       -0.0000795827	        0.4543649445	        0.0047063538	        0.0001852777	        0.0003666482	      -26.3302285914	      870.9455107568	     -142.5836587956	        0.2076431971	        0.0000770316	        1.3583900146	      -75.3351362298	       22.2231638651	      101.3192497151	
        0.5810000000	        0.0000000000	        0.0000000000	        0.0000000000	        0.1988394961	        0.0000558755	       -0.3004071324	        0.0000000000	       -0.0000000000	       -0.0000000000	        0.0007053603	        0.0000000000	        0.0003951388	        0.2029003516	       -0.0000795827	        0.4543649445	        0.0054032603	        0.0002162612	        0.0004087940	      -26.5490764004	      873.0986453016	     -144.9671846475	        0.2076431971	        0.0000770316	        1.3583900146	      -75.4164769959	       22.4152203229	      101.5663841619	
        0.5820000000	        0.0000000000	        0.0000000000	        0.0000000000	        0.1988394961	        0.0000558755	       -0.3004071324	        0.0000000000	       -0.0000000000	       -0.0000000000	        0.0008495281	        0.0000000000	        0.0000239195	        0.2029003516	       -0.0000795827	        0.4543649445	        0.0059311298	        0.0002419423	        0.0004331419	      -26.7618040858	      875.0795935596	     -147.3496956059	        0.2076431971	        0.0000770316	        1.3583900146	      -75.4839992935	       22.6048658297	      101.7966246889	
        0.5830000000	        0.0000000000	        0.0000000000	        0.0000000000	        0.1988394961	        0.0000558755	       -0.3004071324	        0.0000000000	       -0.0000000000	       -0.0000000000	        0.0009834990	        0.0000000000	       -0.0005252642	        0.2029003516	       -0.0000795827	        0.4543649445	        0.0061611822	        0.0002574390	        0.0004290168	      -26.9654744990	      876.8900436800	     -149.7309956325	        0.2076431971	        0.0000770316	        1.3583900146	      -75.5365261133	       22.7917895174	      102.0098245469	
        0.5840000000	        0.0000000000	        0.0000000000	        0.0000000000	        0.1988394961	        0.0000558755	       -0.3004071324	        0.0000000000	       -0.0000000000	       -0.0000000000	        0.0010900729	        0.0000000000	       -0.0012859532	        0.2029003516	       -0.0000795827	        0.4543649445	        0.0059311694	        0.0002564981	        0.0003833190	      -27.1578150271	      878.5330068500	     -152.1097821609	        0.2076431971	        0.0000770316	        1.3583900146	      -75.5733691507	       22.9755417578	      102.2055865193	
